<svg version="1.1" id="Layer_1" xmlns="http://www.w3.org/2000/svg" xmlns:xlink="http://www.w3.org/1999/xlink" x="0px" y="0px"
	 width="100%" viewBox="0 0 286 57" enable-background="new 0 0 286 57" xml:space="preserve">
<path fill="#5170FD" opacity="1.000000" stroke="none" 
	d="
M278.095581,58.000000 
	C186.752899,58.000000 95.922897,57.980137 5.093031,58.081497 
	C1.869536,58.085094 0.828603,57.716782 0.885282,54.091442 
	C1.145779,37.429462 1.039757,20.760925 0.953377,4.095322 
	C0.941608,1.824563 1.168963,0.918345 3.904779,0.921125 
	C97.234573,1.015973 190.564514,1.021268 283.894257,0.906460 
	C286.976959,0.902667 287.074982,1.916916 287.057953,4.394527 
	C286.945679,20.726484 286.887695,37.060970 287.088318,53.391235 
	C287.131989,56.947395 286.611053,58.805634 282.600616,58.038532 
	C281.314423,57.792511 279.941528,58.000000 278.095581,58.000000 
z"/>
<path fill="#04050C" opacity="1.000000" stroke="none" 
	d="
M209.548889,36.224754 
	C207.775574,39.958523 204.760941,38.351757 202.531708,37.940517 
	C200.608582,37.585747 201.695572,35.080181 201.562607,33.538540 
	C201.395401,31.599758 201.522324,29.635611 201.522324,27.050663 
	C197.856293,29.363558 196.150955,32.616280 193.869110,35.284908 
	C190.046097,39.755909 184.520523,39.768833 180.974121,35.191254 
	C178.785629,32.366425 176.576141,29.557852 173.998276,26.258394 
	C173.998276,29.355677 173.956253,31.547407 174.009247,33.736839 
	C174.071152,36.294811 174.457397,38.528351 170.392639,38.462135 
	C166.651123,38.401184 165.773224,36.982983 166.195297,33.744076 
	C166.323273,32.761959 166.214935,31.749056 166.214905,30.750254 
	C166.214615,21.242109 166.209427,21.322939 175.697983,21.933239 
	C177.640778,22.058199 178.727219,22.914953 179.765076,24.280403 
	C182.268097,27.573515 184.804504,30.841265 187.599503,34.472725 
	C190.474854,30.991598 193.126999,27.823067 195.727676,24.612835 
	C196.892166,23.175409 197.959076,22.050720 200.143631,21.924715 
	C209.583649,21.380211 209.578415,21.281046 209.576996,30.804907 
	C209.576752,32.469574 209.570480,34.134239 209.548889,36.224754 
z"/>
<path fill="#050710" opacity="1.000000" stroke="none" 
	d="
M234.951263,35.445930 
	C237.835541,36.300995 242.210846,33.540634 242.457092,37.113266 
	C242.616058,39.419781 238.003601,38.124210 235.560654,38.260132 
	C231.248245,38.500061 226.910522,38.242718 222.587723,38.356770 
	C220.458191,38.412956 219.452301,37.704521 219.717697,35.512131 
	C219.757385,35.184391 219.726334,34.847153 219.717392,34.514591 
	C219.380768,21.989275 219.380600,21.988508 231.832672,21.989853 
	C234.827484,21.990175 237.822540,21.976995 240.816971,22.013292 
	C241.791351,22.025101 242.924194,21.992008 242.894470,23.456419 
	C242.866104,24.853598 241.798828,24.924871 240.789291,24.933990 
	C237.628311,24.962549 234.465591,24.902084 231.306534,24.986856 
	C230.116669,25.018785 228.371323,24.448610 228.273926,26.522768 
	C228.177780,28.570406 229.863770,28.300339 231.121613,28.335955 
	C233.615433,28.406569 236.115585,28.292156 238.606735,28.400702 
	C239.792755,28.452381 241.750031,27.783720 241.785080,29.726299 
	C241.830246,32.230148 239.572479,31.061354 238.338562,31.183891 
	C236.196609,31.396608 234.016800,31.193361 231.856155,31.264408 
	C230.298355,31.315632 228.185532,30.767103 228.254669,33.406597 
	C228.323486,36.034210 230.482849,35.264168 231.993408,35.426788 
	C232.815903,35.515335 233.655533,35.444710 234.951263,35.445930 
z"/>
<path fill="#05060E" opacity="1.000000" stroke="none" 
	d="
M56.431549,31.709770 
	C53.384678,32.083858 50.737419,32.496582 48.081184,32.566086 
	C45.189289,32.641747 42.763031,32.231640 42.729763,36.723671 
	C42.707180,39.772499 39.250526,37.921879 37.367756,38.252045 
	C35.963741,38.498257 34.190739,38.544399 34.250698,36.205185 
	C34.254959,36.039013 34.252357,35.870934 34.232834,35.706123 
	C32.628693,22.165529 32.805195,21.961664 46.261311,21.996099 
	C49.590645,22.004620 52.928551,21.901451 56.192364,22.779573 
	C58.721035,23.459908 61.887939,23.591887 62.009861,27.104166 
	C62.122883,30.360199 59.094261,30.700321 56.431549,31.709770 
z"/>
<path fill="#060811" opacity="1.000000" stroke="none" 
	d="
M268.315491,25.064831 
	C265.403870,25.005459 262.911224,24.938543 260.420044,24.974451 
	C259.630829,24.985826 258.574219,24.990171 258.362518,25.985365 
	C258.077209,27.326435 259.282593,27.592314 260.182770,27.806210 
	C263.737183,28.650763 267.355103,29.256281 270.864227,30.251207 
	C272.675568,30.764776 275.073975,31.262827 275.011597,33.856636 
	C274.951141,36.369629 272.687286,36.911812 270.796417,37.420242 
	C264.251312,39.180130 257.620422,38.776802 250.982071,38.008804 
	C249.587723,37.847485 248.764893,37.306629 249.000397,35.825336 
	C249.236969,34.337345 250.385559,34.782345 251.337769,34.837368 
	C255.633423,35.085602 259.886505,36.401463 264.228638,35.396843 
	C264.991791,35.220280 265.903900,35.108070 266.161133,33.751514 
	C263.484467,31.399916 259.793060,31.930132 256.625244,30.885775 
	C253.894547,29.985531 249.584976,30.016483 249.660812,26.442654 
	C249.744202,22.511974 254.142700,22.446533 257.108765,22.160652 
	C262.696259,21.622107 268.360962,21.358984 274.011169,22.984486 
	C273.086121,26.353746 270.720123,25.215485 268.315491,25.064831 
z"/>
<path fill="#060914" opacity="1.000000" stroke="none" 
	d="
M142.981781,25.222075 
	C142.985840,35.426041 142.987503,35.331875 152.996292,35.508835 
	C155.029388,35.544777 158.807953,34.137501 158.796677,36.917782 
	C158.785568,39.652225 155.020966,38.143581 152.973083,38.258083 
	C148.325073,38.517956 143.652542,38.341137 138.989990,38.338470 
	C138.157516,38.337994 137.324509,38.298126 136.492661,38.316895 
	C134.788681,38.355347 134.036987,37.485027 134.213257,35.852173 
	C134.702957,31.315779 132.615967,26.318815 135.360657,22.392614 
	C136.259216,21.107265 140.345901,21.223204 142.728561,22.844282 
	C143.081161,23.084175 142.909317,24.094902 142.981781,25.222075 
z"/>
<path fill="#030409" opacity="1.000000" stroke="none" 
	d="
M102.664337,31.960880 
	C100.382584,31.961374 98.543251,32.089756 96.728928,31.931416 
	C94.120438,31.703764 92.615486,32.310680 92.963593,35.372715 
	C93.432198,39.494762 90.220406,38.032265 88.219215,38.286514 
	C85.905067,38.580536 84.702385,37.979137 84.532738,35.156193 
	C83.741966,21.997570 83.642601,22.002781 96.621315,22.004105 
	C99.612816,22.004410 102.604645,21.988449 105.595634,22.029648 
	C106.554977,22.042866 107.726013,21.982613 107.706688,23.435114 
	C107.688385,24.810362 106.604980,24.906992 105.593475,24.916372 
	C102.269821,24.947195 98.945816,24.941181 95.621941,24.946722 
	C94.242744,24.949022 93.006233,24.932858 92.981415,26.945078 
	C92.956993,28.925522 94.099220,29.033451 95.538460,29.024092 
	C98.031281,29.007877 100.530800,28.917450 103.014572,29.069550 
	C104.311211,29.148952 106.528893,28.188324 106.590530,30.441029 
	C106.654556,32.780983 104.387329,31.633802 102.664337,31.960880 
z"/>
<path fill="#020307" opacity="1.000000" stroke="none" 
	d="
M15.625796,33.897781 
	C15.626937,31.097200 15.876987,28.743244 15.572330,26.463413 
	C15.047618,22.536860 16.786633,21.850492 20.323425,21.879480 
	C23.504936,21.905556 24.376102,22.920801 24.108984,25.879173 
	C23.886301,28.345407 24.065237,30.847765 24.063578,33.334122 
	C24.058632,40.746143 22.365543,42.548836 14.845120,43.000961 
	C12.862821,43.120140 10.866436,43.111759 8.881392,43.035351 
	C7.824585,42.994667 6.298994,43.306446 6.324808,41.534588 
	C6.350870,39.745625 7.848417,40.074928 8.909223,40.159363 
	C13.139565,40.496086 16.290091,39.682495 15.625796,33.897781 
z"/>
<path fill="#000001" opacity="1.000000" stroke="none" 
	d="
M123.653046,37.694420 
	C121.855339,38.138157 120.355682,38.141228 118.870186,38.287857 
	C116.518044,38.520042 115.560417,37.578945 115.693901,35.176624 
	C115.841438,32.521214 116.055557,29.799612 115.650963,27.198566 
	C114.904747,22.401251 117.187256,21.595087 121.254044,21.939514 
	C123.383179,22.119835 124.194435,22.667654 124.112267,24.839134 
	C123.955025,28.994808 123.997726,33.158047 123.653046,37.694420 
z"/>
<path fill="#5170FD" opacity="1.000000" stroke="none" 
	d="
M201.373886,26.469568 
	C201.505814,26.369106 201.558655,26.745026 201.558655,26.745026 
	C201.558655,26.745026 201.241959,26.570030 201.373886,26.469568 
z"/>
<path fill="#4C69EC" opacity="1.000000" stroke="none" 
	d="
M49.425224,29.530682 
	C47.674446,29.673618 46.345440,29.745489 45.015476,29.785515 
	C43.889660,29.819395 42.961903,29.424120 43.014572,28.156797 
	C43.063168,26.987368 42.242798,25.042625 44.330971,25.052261 
	C47.347572,25.066179 51.178154,23.544498 53.034172,26.822149 
	C54.189075,28.861664 51.270893,28.914141 49.425224,29.530682 
z"/>
</svg>